<?xml version="1.0" standalone="no"?>
<!DOCTYPE svg PUBLIC "-//W3C//DTD SVG 20010904//EN"
 "http://www.w3.org/TR/2001/REC-SVG-20010904/DTD/svg10.dtd">
<svg version="1.0" xmlns="http://www.w3.org/2000/svg"
 width="860.000000pt" height="860.000000pt" viewBox="0 0 860.000000 860.000000"
 preserveAspectRatio="xMidYMid meet">
<metadata>
Created by potrace 1.14, written by Peter Selinger 2001-2017
</metadata>
<g transform="translate(0.000000,860.000000) scale(0.100000,-0.100000)"
fill="#000000" stroke="none">
<path d="M0 7915 c0 -250 4 -385 10 -385 6 0 10 36 11 88 0 48 4 203 8 345 8
240 10 260 29 279 19 19 39 21 343 29 178 6 605 13 949 18 l625 8 -987 1 -988
2 0 -385z"/>
<path d="M3582 7873 c-23 -8 -65 -36 -92 -61 -57 -55 -2957 -4160 -2967 -4201
-3 -14 -23 -51 -43 -81 -56 -83 -107 -189 -137 -287 -27 -85 -27 -95 -28 -328
0 -263 8 -330 57 -480 113 -348 384 -576 813 -684 296 -74 1911 -420 3720
-797 485 -101 610 -124 654 -120 72 7 172 56 209 104 16 20 416 627 889 1347
473 721 1026 1562 1228 1870 203 308 377 579 387 603 18 40 19 80 21 757 1
393 -1 711 -4 707 -4 -4 -142 -213 -308 -465 l-301 -458 0 -167 0 -167 -666
-1010 c-366 -555 -774 -1174 -907 -1374 -133 -200 -256 -387 -273 -415 -22
-37 -317 -485 -448 -683 -1 -1 -53 9 -116 22 -63 14 -671 142 -1350 285 -2127
449 -2619 557 -2732 600 -122 46 -200 123 -232 231 -24 79 -39 243 -34 363 6
135 29 204 88 261 57 56 98 57 340 5 629 -134 2336 -527 3530 -811 257 -62
304 -70 366 -67 74 5 152 38 193 82 19 21 124 182 824 1271 198 308 371 573
384 589 13 15 52 76 87 135 35 58 395 621 800 1250 426 663 741 1161 747 1184
6 22 10 67 10 100 0 111 -79 228 -183 271 -41 18 -4363 636 -4435 635 -26 0
-67 -7 -91 -16z m1578 -818 c718 -101 1530 -216 1804 -255 275 -39 501 -72
501 -73 1 -1 -362 -567 -807 -1257 -445 -690 -978 -1518 -1185 -1840 -207
-322 -382 -591 -388 -599 -11 -11 -41 -6 -186 29 -1237 298 -2936 693 -3269
760 -85 17 -163 34 -173 38 -15 6 -8 20 51 102 37 52 573 813 1190 1691 853
1214 1127 1596 1140 1593 9 -2 604 -87 1322 -189z"/>
<path d="M3878 6927 c-31 -45 -502 -714 -1046 -1487 -971 -1378 -989 -1405
-964 -1413 28 -8 3033 -703 3066 -709 15 -2 48 42 159 212 708 1090 1949 3012
1946 3014 -2 2 -695 106 -1539 230 -844 125 -1542 229 -1550 231 -10 3 -35
-24 -72 -78z m1487 -527 c34 -13 78 -41 103 -64 37 -35 45 -50 49 -88 21 -185
-345 -329 -603 -239 -262 93 -201 328 106 406 84 22 268 14 345 -15z m-439
-456 c50 -7 167 -97 250 -191 212 -243 352 -542 288 -615 -83 -94 -432 -242
-769 -327 -235 -59 -346 -75 -530 -75 l-170 -1 -60 33 c-164 88 -389 339 -478
531 -24 52 -31 80 -31 133 -1 60 2 70 28 97 142 148 1146 451 1406 424 19 -2
49 -6 66 -9z m-981 -1276 c102 -26 188 -95 201 -163 26 -143 -169 -268 -421
-269 -137 0 -229 29 -297 94 -44 43 -48 50 -48 94 0 26 6 59 14 74 18 34 80
92 126 119 108 63 291 85 425 51z"/>
<path d="M8585 651 c-3 -6 -8 -46 -12 -90 l-6 -79 -56 -56 -56 -55 -230 -10
c-387 -18 -1376 -31 -2513 -34 -811 -3 -1085 -6 -1094 -15 -9 -9 457 -12 1985
-12 l1997 0 0 180 c0 99 -2 180 -4 180 -3 0 -7 -4 -11 -9z"/>
<path d="M0 310 c0 -6 7 -10 15 -10 19 0 19 6 0 14 -8 3 -15 1 -15 -4z"/>
</g>
</svg>
